<svg xmlns="http://www.w3.org/2000/svg" viewBox="0 0 1024 1024" width="1024" height="1024">
  <defs/>
  <path d="M671.7 525.2c0-89.7-72.2-161.9-161.9-161.9s-161.9 72.2-161.9 161.9c0 70 43.8 129.1 105 151l-63.5 332.6H630l-61.3-332.6c59.3-24.1 103-81 103-151" fill="#036"/>
  <path d="M1024 522.8932c0-280.1-229.8-507.6-512-507.6s-512 227.5-512 507.6c0 186 100.7 347.9 251.6 435.4l32.8-216.6c-48.1-52.5-78.8-124.7-78.8-201.3 0-166.3 135.7-302 304.1-302s304.1 135.7 304.1 302c0 78.8-30.6 148.8-78.8 203.5l33 216.6c153.2-87.5 256-251.7 256-437.6" fill="#ea7e20"/>
</svg>